<?xml version="1.0" encoding="UTF-8" standalone="no"?>
<!-- Created with Inkscape (http://www.inkscape.org/) -->

<svg
   width="193.70563mm"
   height="96.92424mm"
   viewBox="0 0 193.70563 96.92424"
   version="1.1"
   id="svg5"
   xml:space="preserve"
   xmlns="http://www.w3.org/2000/svg"
   xmlns:svg="http://www.w3.org/2000/svg"><defs
     id="defs2" /><rect
     style="fill:none;fill-opacity:0.3;stroke:none;stroke-width:1.24772;stroke-linecap:round;stroke-miterlimit:7"
     id="rect1722"
     width="193.70561"
     height="96.924232"
     x="-1.8746111e-07"
     y="-2.6567106e-06"
     rx="0.87270731"
     ry="2.9701045" /><g
     id="layer6"
     transform="translate(-8.1471941,-40.980494)"><path
       style="fill:#00aad4;fill-opacity:0.3;stroke:#000000;stroke-width:1.32292;stroke-linecap:round;stroke-miterlimit:7"
       d="m 14.918609,111.06076 4.093314,5.64944 -0.135316,3.65354 7.848339,2.4357 12.855037,11.56953 8.389603,-0.40595 10.554663,1.48848 5.344989,-1.6238 6.698151,0.74424 3.112272,-3.11227 -3.807158,-3.50759 1.243879,-2.58344 -1.267799,-3.13362 -2.918332,-2.22463 -6.55608,-0.1123 -1.207802,3.10432 -5.581161,1.89443 -0.135317,-3.04462 -7.645365,0.87955 1.797761,-3.79781 -2.535599,-5.78882 -2.990093,-0.81331 0.211289,-2.75554 -1.896004,0.57108 -11.840166,-5.95391 4.127144,-8.930868 -3.382905,-1.217846 -9.066184,14.512664 -3.721195,1.0487 z"
       id="path3506" /></g></svg>
