<?xml version="1.0" encoding="UTF-8" standalone="no"?>
<!-- Created with Inkscape (http://www.inkscape.org/) -->

<svg
   width="193.70563mm"
   height="96.92424mm"
   viewBox="0 0 193.70563 96.92424"
   version="1.1"
   id="svg5"
   xml:space="preserve"
   xmlns="http://www.w3.org/2000/svg"
   xmlns:svg="http://www.w3.org/2000/svg"><defs
     id="defs2" /><rect
     style="fill:none;fill-opacity:0.3;stroke:none;stroke-width:1.24772;stroke-linecap:round;stroke-miterlimit:7"
     id="rect1722"
     width="193.70561"
     height="96.924232"
     x="-1.8746111e-07"
     y="-2.6567106e-06"
     rx="0.87270731"
     ry="2.9701045" /><g
     id="layer6"
     transform="translate(-8.1471941,-40.980494)"><path
       d="m 167.15818,62.289626 5.74098,-8.180895 -4.30573,-3.970844 -6.17155,1.913659 -5.21473,-2.296391 -7.75032,1.674452 1.91366,2.439916 -6.41076,3.492429 -0.19137,-2.296391 -2.96617,1.243879 -2.63128,-2.726965 -3.1097,2.87049 0.5741,2.87049 -0.47842,5.501772 -2.39207,0.430573 0.5741,1.961501 h 2.87049 l 3.923,2.200709 -0.6937,1.841898 5.9734,5.599684 3.18824,4.040376 5.0712,1.91366 8.27658,-1.243879 -1.3874,-5.453931 3.01401,-4.401417 -2.34423,-1.435245 z"
       style="display:inline;fill:#3771c8;fill-opacity:0.3;stroke:#000000;stroke-width:1.32292;stroke-linecap:round;stroke-miterlimit:7"
       id="path3287" /></g></svg>
