<?xml version="1.0" encoding="UTF-8" standalone="no"?>
<!-- Created with Inkscape (http://www.inkscape.org/) -->

<svg
   width="193.70563mm"
   height="96.92424mm"
   viewBox="0 0 193.70563 96.92424"
   version="1.1"
   id="svg5"
   xml:space="preserve"
   xmlns="http://www.w3.org/2000/svg"
   xmlns:svg="http://www.w3.org/2000/svg"><defs
     id="defs2" /><rect
     style="fill:none;fill-opacity:0.3;stroke:none;stroke-width:1.24772;stroke-linecap:round;stroke-miterlimit:7"
     id="rect1722"
     width="193.70561"
     height="96.924232"
     x="-1.8746111e-07"
     y="-2.6567106e-06"
     rx="0.87270731"
     ry="2.9701045" /><g
     id="layer6"
     transform="translate(-8.1471941,-40.980494)"><path
       style="fill:#3771c8;fill-opacity:0.3;stroke:#000000;stroke-width:1.32292;stroke-linecap:round;stroke-miterlimit:7"
       d="m 141.06712,82.136922 5.34499,-5.27733 -5.9734,-5.599684 0.6937,-1.841898 -3.923,-2.200709 h -2.87049 l -0.5741,-1.961501 2.39207,-0.430573 0.47842,-5.501772 -0.5741,-2.87049 3.1097,-2.87049 -1.81798,-2.057184 -2.91833,0.621939 -0.0957,1.675035 -3.38666,-0.473859 -1.28551,-1.167102 -2.2158,1.471563 -2.13123,-0.930299 -0.89647,2.858555 -5.39573,1.353162 -1.3135,6.623142 v 0 l -1.36348,0.02392 -1.43525,8.372264 2.00934,5.310405 7.90457,-3.719668 4.05948,3.484392 -4.80372,3.890339 6.96878,2.706324 6.59667,5.817206 z"
       id="path3275" /></g></svg>
